<svg xmlns="http://www.w3.org/2000/svg" version="1.1" xmlns:xlink="http://www.w3.org/1999/xlink" xmlns:svgjs="http://svgjs.dev/svgjs" width="2000" height="1247" viewBox="0 0 2000 1247"><g transform="matrix(1,0,0,1,-1.2121212121212466,0.504858299595071)"><svg viewBox="0 0 396 247" data-background-color="#ffffff" preserveAspectRatio="xMidYMid meet" height="1247" width="2000" xmlns="http://www.w3.org/2000/svg" xmlns:xlink="http://www.w3.org/1999/xlink"><g id="tight-bounds" transform="matrix(1,0,0,1,0.2400000000000091,-0.09999999999999432)"><svg viewBox="0 0 395.52 247.2" height="247.2" width="395.52"><g><svg></svg></g><g><svg viewBox="0 0 395.52 247.2" height="247.2" width="395.52"><g transform="matrix(1,0,0,1,139.636289212828,47.215199999999996)"><svg viewBox="0 0 116.24742157434402 152.7696" height="152.7696" width="116.24742157434402"><g><svg viewBox="0 0 116.24742157434402 152.7696" height="152.7696" width="116.24742157434402"><g><svg viewBox="0 0 116.24742157434402 152.7696" height="152.7696" width="116.24742157434402"><g><svg viewBox="0 0 116.24742157434402 152.7696" height="152.7696" width="116.24742157434402"><g id="textblocktransform"><svg viewBox="0 0 116.24742157434402 152.7696" height="152.7696" width="116.24742157434402" id="textblock"><g><svg viewBox="0 0 116.24742157434402 152.7696" height="152.7696" width="116.24742157434402"><g transform="matrix(1,0,0,1,0,0)"><svg width="116.24742157434402" viewBox="4.6 -34.3 26.1 34.3" height="152.7696" data-palette-color="#6230a3"><path d="M16.5-34.3Q20.8-34.3 24-32.43 27.2-30.55 28.95-27.08 30.7-23.6 30.7-18.9L30.7-18.9 30.7-15.4Q30.7-10.7 28.95-7.23 27.2-3.75 24-1.88 20.8 0 16.5 0L16.5 0 4.6 0 4.6-34.3 16.5-34.3ZM16.5-29.85L9.5-29.85 9.5-4.45 16.5-4.45Q20.95-4.45 23.38-7.23 25.8-10 25.8-15.4L25.8-15.4 25.8-18.9Q25.8-24.2 23.43-27.03 21.05-29.85 16.5-29.85L16.5-29.85Z" opacity="1" transform="matrix(1,0,0,1,0,0)" fill="#6230a3" class="wordmark-text-0" data-fill-palette-color="primary" id="text-0"></path></svg></g></svg></g></svg></g></svg></g></svg></g></svg></g></svg></g><path d="M321.938 41.215L321.938 0 74.738 0 74.738 247.2 321.938 247.2 321.938 205.985 308.161 205.985 308.161 233.423 88.515 233.423 88.515 13.777 308.161 13.777 308.161 41.215Z" fill="#6230a3" stroke="transparent" data-fill-palette-color="tertiary"></path></svg></g><defs></defs></svg><rect width="395.52" height="247.2" fill="none" stroke="none" visibility="hidden"></rect></g></svg></g></svg>